<svg version="1" xmlns="http://www.w3.org/2000/svg" width="682.667" height="682.667" viewBox="0 0 512.000000 512.000000"><path d="M250.3 6.7c-2.1 2.7-4.1 5-4.4 5.3-1.6 1.4-8 13-8.9 16-2 6.9 1 15.5 7.1 20.3 2.8 2.2 3 2.8 3.1 9.3 0 11.6.3 10.9-4.1 11.1-2.2.1-4.9.7-6 1.3-4.7 2.5-4.8 3.4-4.7 55.8l.1 49.2h-56.1c-36.7 0-58 .4-61.5 1.1-9.9 2-18.8 10.5-21.3 20.4-.8 3-1.1 22.9-1.1 62.9.1 32.2-.1 58.6-.4 58.6-.3.1-6.9.2-14.6.4-12.6.2-14.6.5-19.6 2.8-7.6 3.5-13.3 8.8-16.6 15.6l-2.8 5.7-.3 59.6-.3 59.6-18.9-.2-19-.1v2.8c0 15.5 11.1 32.6 26.3 40.5 10.6 5.6-2.2 5.3 232.7 5l216.5-.2 8.5-4.2c14.8-7.2 24-18.8 27.1-34.2 2-10.2 3.1-9.6-18.1-9.6h-18.5L474 402c-.5-58.3-.5-59.6-2.7-64.2-3.2-7-9.4-13.1-16.6-16.4-5.7-2.6-7.4-2.9-20.2-3.2l-14-.4V197.5l-2.4-5.3c-3.1-6.8-10.3-13.3-17.1-15.5-4.7-1.5-11.6-1.7-63.4-1.7h-58.1l.1-49.4c0-27.1-.3-50.3-.7-51.4-1.2-3.1-5.6-5.6-10-5.6-3.2 0-3.9-.4-4-2.1-.1-2.2-.1-12.1 0-14.6.1-.9 1.6-2.7 3.4-3.9 3.9-2.7 6.9-8.7 7.2-14.7.2-3.5-.4-6-3-10.8-5-9.6-13.8-20.5-16.6-20.5-1 0-3.5 2.1-5.6 4.7z"/></svg>