<?xml version="1.0" encoding="utf-8"?>
<!-- Generator: Adobe Illustrator 21.0.0, SVG Export Plug-In . SVG Version: 6.00 Build 0)  -->
<svg version="1.1" id="Capa_1" xmlns="http://www.w3.org/2000/svg" xmlns:xlink="http://www.w3.org/1999/xlink" x="0px" y="0px"
	 viewBox="0 0 178.9 157.5" style="enable-background:new 0 0 178.9 157.5;" xml:space="preserve">
<style type="text/css">
	.st0{fill:#FFFFFF;}
</style>
<g>
	<path class="st0" d="M132.5,50c1.7-2,4-3.6,6.8-4.7c2.8-1.2,6.3-1.8,10.4-1.8c4.2,0,7.8,0.9,11,2.6c3.2,1.7,5.6,4.2,7.3,7.5
		c3.1,6,4.6,14.1,4.6,24.3c0,13-2.3,22.3-7,27.7c-3.8,4.4-9.4,6.6-16.6,6.6c-13.3,0-21-7.8-23-23.4c-0.4-3.3-0.6-6.9-0.6-11
		c0-4,0.2-7.7,0.6-10.9c0.4-3.2,1.2-6.3,2.3-9.4C129.4,54.4,130.8,52,132.5,50z M161.8,59.4c-1-2.7-2.5-4.8-4.7-6.2
		s-4.7-2.1-7.7-2.1c-2.9,0-5.4,0.5-7.3,1.5c-1.9,1-3.4,2.3-4.5,3.9c-1.1,1.6-1.9,3.6-2.5,6.1c-0.6,2.5-1,4.9-1.2,7.1
		c-0.2,2.3-0.2,5-0.2,8.1s0.1,5.8,0.2,8.1c0.2,2.3,0.5,4.7,1.2,7.1c0.6,2.5,1.5,4.5,2.5,6.1c1.1,1.6,2.6,2.9,4.5,3.9
		s4.2,1.5,6.8,1.5s4.9-0.5,6.8-1.5c1.9-1,3.4-2.3,4.5-3.9s1.9-3.6,2.5-6.1c1-4,1.5-8.6,1.5-13.6c0-5.1-0.2-9-0.5-11.8
		C163.5,64.8,162.8,62.1,161.8,59.4z"/>
</g>
<g>
	<g>
		<path class="st0" d="M67.5,56.4c1.9,0,4.6,0.3,6.6,2.1c1.8,1.4,2.9,3.8,3.2,7.1c0.4,4-0.7,8.3-3.2,12.6c-2.2,4-5.6,8-10.1,12
			c-4.8,4.3-9.8,7.7-13,9.7c-3.2-2.1-8.2-5.4-13-9.7c-4.5-4.1-7.9-8.1-10.1-12c-2.5-4.4-3.6-8.6-3.2-12.6c0.3-3.2,1.4-5.6,3.2-7.1
			c2.1-1.7,4.7-2,6.6-2c4.1,0,8.5,1.7,11.4,4.2l5.1,4.6l5.1-4.6C59,58.1,63.4,56.4,67.5,56.4 M67.5,48.9c-6,0-12.2,2.3-16.5,6.1
			c-4.3-3.8-10.5-6.1-16.4-6.1c-8.4,0-16.2,4.6-17.4,15.8c-2.6,24.8,33.8,44,33.8,44s36.5-19.2,33.9-44
			C83.8,53.4,75.9,48.9,67.5,48.9L67.5,48.9z"/>
	</g>
</g>
</svg>
