<?xml version="1.0" encoding="utf-8"?>
<!-- Generator: Adobe Illustrator 21.0.0, SVG Export Plug-In . SVG Version: 6.00 Build 0)  -->
<svg version="1.1" id="Capa_1" xmlns="http://www.w3.org/2000/svg" xmlns:xlink="http://www.w3.org/1999/xlink" x="0px" y="0px"
	 viewBox="0 0 178.9 157.5" style="enable-background:new 0 0 178.9 157.5;" xml:space="preserve">
<style type="text/css">
	.st0{fill:#FFFFFF;}
</style>
<g>
	<path class="st0" d="M150.7,104.8c5,0,8.7-1.9,11-5.8s3.5-10.6,3.5-20.3c-1.6,2.5-3.9,4.4-6.8,5.7c-2.9,1.3-6.1,2-9.4,2
		c-6.2,0-11.4-2-15.6-5.9c-4.2-3.9-6.3-9.3-6.3-16.1s2-12.3,5.9-16.4s9.4-6.2,16.4-6.2c8.2,0,14.1,2.8,17.7,8.4
		c3.6,5.6,5.4,14.4,5.4,26.4s-1.6,20.9-4.9,26.6c-3.3,5.8-9.1,8.6-17.3,8.6c-6.3,0-11.3-1.7-14.9-5c-3.6-3.3-5.7-7.5-6.4-12.5h7.8
		C138.2,101.4,142.9,104.8,150.7,104.8z M135.2,64.2c0,4.5,1.3,8.1,3.8,10.9s6.1,4.1,10.8,4.1s8.2-1.3,10.6-3.9
		c2.4-2.6,3.6-6.3,3.6-10.9s-1.3-8.3-3.8-11s-6-4.1-10.5-4.1s-8,1.4-10.6,4.1C136.5,56.1,135.2,59.7,135.2,64.2z"/>
</g>
<g>
	<path class="st0" d="M84.8,64.7c-1.2-11.3-9-15.8-17.4-15.8c-6,0-12.2,2.3-16.5,6.1c-4.4-3.8-10.6-6.1-16.5-6.1
		c-8.4,0-16.2,4.6-17.4,15.8c-2.5,24.8,34,43.9,34,43.9S87.4,89.5,84.8,64.7z M74.1,78.1c-0.7,1.1-1.3,2.2-2.1,3.2v-24
		c0.7,0.2,1.4,0.7,2.1,1.2c1.8,1.4,2.9,3.8,3.2,7C77.7,69.4,76.7,73.7,74.1,78.1z"/>
</g>
</svg>
