<?xml version="1.0" encoding="utf-8"?>
<!-- Generator: Adobe Illustrator 21.0.0, SVG Export Plug-In . SVG Version: 6.00 Build 0)  -->
<svg version="1.1" id="Capa_1" xmlns="http://www.w3.org/2000/svg" xmlns:xlink="http://www.w3.org/1999/xlink" x="0px" y="0px"
	 viewBox="0 0 178.9 157.5" style="enable-background:new 0 0 178.9 157.5;" xml:space="preserve">
<style type="text/css">
	.st0{fill:#FFFFFF;}
</style>
<g>
	<path class="st0" d="M136.1,46.7c4-3.1,9.2-4.7,15.5-4.7s11.3,1.7,14.9,5c3.7,3.3,5.5,7.6,5.5,12.7c0,3.7-1,6.9-3.1,9.7
		s-4.7,4.7-8,5.7v0.5c3.8,1.1,6.8,3.1,9,6.2s3.3,7.2,3.3,12.3c0,5.1-1.9,9.5-5.7,13.1s-9,5.4-15.7,5.4s-12.1-1.7-16.4-5.1
		s-6.6-8.2-7-14.4h8.1c0.3,3.6,1.8,6.5,4.5,8.8s6.2,3.4,10.6,3.4s7.8-1.2,10.2-3.5c2.3-2.3,3.5-5.4,3.5-9.1c0-5-1.6-8.5-4.7-10.5
		c-3.1-2.1-7.9-3.1-14.4-3.1h-2.3V72h2.3c11.9-0.2,17.8-4,17.8-11.4c0-3.4-1.1-6.2-3.3-8.2s-5.3-3-9.4-3c-4,0-7.2,0.9-9.5,2.8
		c-2.3,1.8-3.7,4.3-4.2,7.4h-8.3C129.8,54.1,132,49.8,136.1,46.7z"/>
</g>
<g>
	<path class="st0" d="M84.8,64.7c-1.2-11.3-9-15.8-17.4-15.8c-6,0-12.2,2.3-16.5,6.1c-4.4-3.8-10.6-6.1-16.5-6.1
		c-8.4,0-16.2,4.6-17.4,15.8c-2.5,24.8,34,43.9,34,43.9S87.4,89.5,84.8,64.7z M74.1,78.1c-2.2,4-5.6,8-10.1,12
		c-4.8,4.3-9.8,7.7-13,9.7c-2.7-1.7-6.5-4.3-10.6-7.6V57.6c2.1,0.7,4,1.8,5.5,3.1l5.1,4.6l5.1-4.6c2.8-2.6,7.2-4.2,11.4-4.2
		c1.9,0,4.6,0.3,6.6,2.1c1.8,1.4,2.9,3.8,3.2,7C77.7,69.4,76.7,73.7,74.1,78.1z"/>
</g>
</svg>
