<?xml version="1.0" encoding="utf-8"?>
<!-- Generator: Adobe Illustrator 21.0.0, SVG Export Plug-In . SVG Version: 6.00 Build 0)  -->
<svg version="1.1" id="Capa_1" xmlns="http://www.w3.org/2000/svg" xmlns:xlink="http://www.w3.org/1999/xlink" x="0px" y="0px"
	 viewBox="0 0 178.9 157.5" style="enable-background:new 0 0 178.9 157.5;" xml:space="preserve">
<style type="text/css">
	.st0{fill:#FFFFFF;}
</style>
<g>
	<path class="st0" d="M129.8,111.2v-6.1c1.5-1.3,3.9-3.4,7.1-6.1c3.2-2.8,5.6-4.8,7.2-6.3c1.6-1.4,3.6-3.3,6.2-5.7
		c2.6-2.4,4.5-4.4,5.9-6.1c1.3-1.6,2.7-3.5,4.2-5.6c2.7-4,4-8,4-11.9s-1-7.1-3.1-9.4c-2-2.4-5.2-3.6-9.6-3.6s-7.7,1.3-10,4
		s-3.6,6.2-3.8,10.6h-8.2c0.2-7,2.4-12.4,6.3-16.2c4-3.8,9.1-5.7,15.5-5.7s11.5,1.8,15.3,5.4c3.9,3.6,5.8,8.5,5.8,14.7
		c0,7.5-3.6,15.1-10.9,23c-2.6,2.8-4.7,4.9-6.1,6.2c-4,3.9-8.3,7.7-12.9,11.6h32v7.2C174.7,111.2,129.8,111.2,129.8,111.2z"/>
</g>
<g>
	<path class="st0" d="M84.8,64.7c-1.2-11.3-9-15.8-17.4-15.8c-6,0-12.2,2.3-16.5,6.1c-4.4-3.8-10.6-6.1-16.5-6.1
		c-8.4,0-16.2,4.6-17.4,15.8c-2.5,24.8,34,43.9,34,43.9S87.4,89.5,84.8,64.7z M74.1,78.1c-2.2,4-5.6,8-10.1,12
		c-4.8,4.3-9.8,7.7-13,9.7c-3.2-2.1-8.2-5.4-13-9.7c-1-1-2.1-1.9-3-2.8V56.5c4,0.1,8,1.7,10.8,4.2l5.1,4.6l5.1-4.6
		c2.8-2.6,7.2-4.2,11.4-4.2c1.9,0,4.6,0.3,6.6,2.1c1.8,1.4,2.9,3.8,3.2,7C77.7,69.4,76.7,73.7,74.1,78.1z"/>
</g>
</svg>
