<?xml version="1.0" encoding="utf-8"?>
<!-- Generator: Adobe Illustrator 21.0.0, SVG Export Plug-In . SVG Version: 6.00 Build 0)  -->
<svg version="1.1" id="Capa_1" xmlns="http://www.w3.org/2000/svg" xmlns:xlink="http://www.w3.org/1999/xlink" x="0px" y="0px"
	 viewBox="0 0 178.9 157.5" style="enable-background:new 0 0 178.9 157.5;" xml:space="preserve">
<style type="text/css">
	.st0{fill:#FFFFFF;}
</style>
<g>
	<path class="st0" d="M127.9,43.4h40.7v7.4h-32.8v21.5c1.4-2.1,3.5-3.8,6.3-5.2c2.8-1.4,6-2.1,9.6-2.1s6.9,0.7,9.9,2
		s5.3,3.2,6.9,5.5c3.1,4.5,4.6,9.7,4.6,15.4c0,7.1-2,12.9-5.9,17.3c-3.9,4.5-9.5,6.7-16.6,6.7s-12.7-1.7-16.7-5s-6.6-7.7-7.6-13.2
		h8.2c0.9,3.4,2.7,6,5.4,8c2.7,1.9,6.3,2.9,10.8,2.9s8-1.5,10.5-4.5s3.8-7,3.8-12.1s-1.3-9-3.8-11.7s-6.3-4.1-11.3-4.1
		c-3.4,0-6.3,0.9-8.7,2.6c-2.4,1.8-4.3,4.1-5.5,7.1h-7.8C127.9,81.9,127.9,43.4,127.9,43.4z"/>
</g>
<g>
	<path class="st0" d="M84.8,64.7c-1.2-11.3-9-15.8-17.4-15.8c-6,0-12.2,2.3-16.5,6.1c-4.4-3.8-10.6-6.1-16.5-6.1
		c-8.4,0-16.2,4.6-17.4,15.8c-2.5,24.8,34,43.9,34,43.9S87.4,89.5,84.8,64.7z M74.1,78.1c-2.2,4-5.6,8-10.1,12
		c-4.8,4.3-9.8,7.7-13,9.7c0,0-0.1,0-0.1-0.1V65.2l5.1-4.6c2.8-2.6,7.2-4.2,11.4-4.2c1.9,0,4.6,0.3,6.6,2.1c1.8,1.4,2.9,3.8,3.2,7
		C77.7,69.4,76.7,73.7,74.1,78.1z"/>
</g>
</svg>
