<?xml version="1.0" encoding="utf-8"?>
<!-- Generator: Adobe Illustrator 21.0.0, SVG Export Plug-In . SVG Version: 6.00 Build 0)  -->
<svg version="1.1" id="Capa_1" xmlns="http://www.w3.org/2000/svg" xmlns:xlink="http://www.w3.org/1999/xlink" x="0px" y="0px"
	 viewBox="0 0 178.9 157.5" style="enable-background:new 0 0 178.9 157.5;" xml:space="preserve">
<style type="text/css">
	.st0{fill:#C38D7C;}
</style>
<path class="st0" d="M176,42c-2.5-24.7-18.6-39.5-43.2-39.5c-15.1,0-30.7,5.8-41.7,15.6l-1.7,1.5l-1.7-1.5
	C77.1,8.5,61.1,2.5,46.1,2.5C34.3,2.5,6.5,6.3,2.8,41.9c-5.9,57.3,70.5,103.6,85.9,112.3l0.7,0.4l0.7-0.4
	c6.5-3.6,29.3-17.1,50.1-37.1C166.5,91.7,178.6,66.4,176,42z M125.5,110.7C113,122,99.8,131,90.8,136.5l-1.3,0.8l-1.3-0.8
	c-8.7-5.5-21.8-14.4-34.7-25.8c-11.9-10.9-21-21.8-27.1-32.4c-6.9-12.1-9.8-23.8-8.6-34.8c1-9.2,4.1-16,9.4-20.2
	c6.2-5,14.5-5.8,19-5.8c11.5,0,23.6,4.5,31.7,11.7l11.7,10.5l11.7-10.5c8.1-7.2,20.2-11.7,31.6-11.7c7.8,0,14.2,2,19,5.9
	c5.2,4.2,8.4,11,9.4,20.2c1.2,10.9-1.7,22.6-8.6,34.8C146.4,89.2,137.2,100,125.5,110.7z"/>
</svg>
