<?xml version="1.0" encoding="utf-8"?>
<!-- Generator: Adobe Illustrator 21.0.0, SVG Export Plug-In . SVG Version: 6.00 Build 0)  -->
<svg version="1.1" id="Capa_1" xmlns="http://www.w3.org/2000/svg" xmlns:xlink="http://www.w3.org/1999/xlink" x="0px" y="0px"
	 viewBox="0 0 178.9 157.5" style="enable-background:new 0 0 178.9 157.5;" xml:space="preserve">
<style type="text/css">
	.st0{fill:#FFFFFF;}
</style>
<path class="st0" d="M84.9,64.7c-1.2-11.4-9-15.9-17.3-15.9c-6,0-12.2,2.3-16.5,6.2c-4.4-3.8-10.6-6.2-16.5-6.2
	c-8.4,0-16.3,4.6-17.4,15.8c-2.6,24.9,33.9,44,33.9,44S87.5,89.5,84.9,64.7z M74.2,78.1c-1.7,3.2-4.2,6.3-7.4,9.5V56.4
	c0.2,0,0.4,0,0.7,0c1.9,0,4.6,0.3,6.6,2.1c1.8,1.4,2.9,3.8,3.2,7.1C77.8,69.4,76.8,73.7,74.2,78.1z"/>
<g>
	<path class="st0" d="M127,59.9c0-5.3,1.9-9.7,5.8-13.2c3.9-3.5,9.3-5.2,16.4-5.2c7,0,12.5,1.8,16.3,5.3s5.7,7.9,5.7,13.3
		c0,3.6-0.9,6.8-2.8,9.5c-1.9,2.7-4.3,4.7-7.3,6.1c3.6,1.2,6.5,3.3,8.6,6.4c2.2,3.1,3.3,6.8,3.3,11.1c0,6.3-2.2,11.4-6.6,15.2
		c-4.4,3.8-10.2,5.7-17.3,5.7s-12.9-1.9-17.3-5.7c-4.4-3.8-6.6-8.9-6.6-15.2c0-4.3,1.1-8,3.3-11.1s5.1-5.2,8.7-6.4
		C130.4,72.3,127,67.1,127,59.9z M164.8,92.7c0-4.3-1.4-7.6-4.3-9.9c-2.9-2.3-6.7-3.4-11.3-3.4c-4.7,0-8.5,1.1-11.4,3.4
		s-4.4,5.6-4.4,10s1.4,7.8,4.3,10.3c2.9,2.5,6.7,3.8,11.5,3.8s8.6-1.3,11.5-3.8S164.8,97,164.8,92.7z M163.1,60.5
		c0-3.6-1.2-6.5-3.7-8.6s-5.9-3.1-10.2-3.1c-4.4,0-7.8,1.1-10.3,3.1c-2.5,2.1-3.8,5-3.8,8.6s1.3,6.6,3.9,8.8c2.6,2.2,6,3.3,10.1,3.3
		s7.5-1.1,10.1-3.3C161.8,67,163.1,64.1,163.1,60.5z"/>
</g>
</svg>
