<?xml version="1.0" encoding="utf-8"?>
<!-- Generator: Adobe Illustrator 21.0.0, SVG Export Plug-In . SVG Version: 6.00 Build 0)  -->
<svg version="1.1" id="Capa_1" xmlns="http://www.w3.org/2000/svg" xmlns:xlink="http://www.w3.org/1999/xlink" x="0px" y="0px"
	 viewBox="0 0 178.9 157.5" style="enable-background:new 0 0 178.9 157.5;" xml:space="preserve">
<style type="text/css">
	.st0{fill:#FFFFFF;}
</style>
<title>un</title>
<g>
	<path class="st0" d="M170,31.4l-29.9-16.7c-0.1-0.1-0.2-0.1-0.3-0.1c-0.1,0-0.1-0.1-0.2-0.1c0,0-0.1,0-0.1,0
		c-0.2-0.1-0.5-0.1-0.7-0.1c0,0-0.1,0-0.1,0c-0.3,0-0.5,0-0.8,0.1c-0.1,0-0.2,0.1-0.2,0.1c-0.1,0.1-0.3,0.1-0.4,0.2
		c0,0-0.1,0.1-0.1,0.1c-0.1,0.1-0.2,0.1-0.2,0.2c-0.1,0.1-0.3,0.2-0.4,0.4c0,0-0.1,0.1-0.1,0.1l-41.7,56l-39.6-26
		c-0.5-0.7-1.4-1.2-2.3-1.2H9.3c-1.2,0-2.2,0.7-2.7,1.8c-0.4,1.1-0.1,2.3,0.8,3.1l56.5,50.4l3.8,4.5l11.1,34.8l4.7,4.1
		c0,0,0.1-0.1,0.1-0.1c0.1,0,0.1-0.1,0.2-0.1l56.4-36.6c0.1-0.1,0.2-0.1,0.2-0.2c0.1-0.1,0.2-0.1,0.2-0.2c0.1-0.1,0.2-0.2,0.3-0.3
		c0.1-0.1,0.1-0.1,0.2-0.2c0.1-0.1,0.1-0.3,0.2-0.4c0-0.1,0.1-0.1,0.1-0.2c0.1-0.2,0.1-0.5,0.1-0.7l0,0l0,0V51.4l28.4-15.1
		c0.9-0.5,1.5-1.4,1.5-2.5C171.4,32.8,170.9,31.9,170,31.4z M16.7,50h33.6l6.8,21.3l6.2,20.3L16.7,50z M83.9,136L62.6,69.6
		l-4.7-15.5l75.7,49.6L83.9,136z M135.9,49.7v48.8L99.6,74.4l36.2-48.6V49.7z M141.6,45V22l21.1,11.8L141.6,45z"/>
</g>
</svg>
