<?xml version="1.0" encoding="utf-8"?>
<!-- Generator: Adobe Illustrator 21.0.0, SVG Export Plug-In . SVG Version: 6.00 Build 0)  -->
<svg version="1.1" id="Capa_1" xmlns="http://www.w3.org/2000/svg" xmlns:xlink="http://www.w3.org/1999/xlink" x="0px" y="0px"
	 viewBox="0 0 224.7 49.3" style="enable-background:new 0 0 224.7 49.3;" xml:space="preserve">
<style type="text/css">
	.st0{fill:#FFFFFF;}
</style>
<g>
	<path class="st0" d="M31,19.4c0.5,0,1.3,0.1,1.9,0.6c0.5,0.4,0.8,1.1,0.9,2c0.1,1.1-0.2,2.3-0.9,3.6c-0.6,1.1-1.6,2.3-2.9,3.4
		c-1.4,1.2-2.8,2.2-3.7,2.7c-0.9-0.6-2.3-1.5-3.7-2.7c-1.3-1.1-2.2-2.3-2.9-3.4c-0.7-1.2-1-2.4-0.9-3.6c0.1-0.9,0.4-1.6,0.9-2
		c0.6-0.5,1.3-0.6,1.9-0.6c1.2,0,2.4,0.5,3.2,1.2l1.4,1.3l1.4-1.3C28.6,19.8,29.8,19.4,31,19.4 M31,17.2c-1.7,0-3.4,0.7-4.7,1.7
		c-1.2-1.1-3-1.7-4.6-1.7c-2.4,0-4.6,1.3-4.9,4.5c-0.7,7,9.6,12.4,9.6,12.4s10.3-5.4,9.6-12.4C35.5,18.5,33.3,17.2,31,17.2L31,17.2z
		"/>
</g>
<g>
	<path class="st0" d="M197.5,19c-2.9-2.6-9-2.7-9.6,2.7c-0.7,7,9.6,12.4,9.6,12.4s10.3-5.4,9.6-12.4C206.5,16.3,200.4,16.3,197.5,19
		z"/>
</g>
</svg>
