<?xml version="1.0" encoding="utf-8"?>
<!-- Generator: Adobe Illustrator 21.0.0, SVG Export Plug-In . SVG Version: 6.00 Build 0)  -->
<svg version="1.1" id="Capa_1" xmlns="http://www.w3.org/2000/svg" xmlns:xlink="http://www.w3.org/1999/xlink" x="0px" y="0px"
	 viewBox="0 0 178.9 157.5" style="enable-background:new 0 0 178.9 157.5;" xml:space="preserve">
<style type="text/css">
	.st0{fill:#FFFFFF;}
</style>
<g>
	<path class="st0" d="M158.6,112.2V96.9h-35v-6L156,44.5h10.9v45.1h9.1v7.3h-9.1v15.2L158.6,112.2L158.6,112.2z M158.9,89.6V52.4
		l-25.3,37.2C133.6,89.6,158.9,89.6,158.9,89.6z"/>
</g>
<g>
	<path class="st0" d="M84.8,64.7c-1.2-11.3-9-15.8-17.4-15.8c-6,0-12.2,2.3-16.5,6.1c-4.4-3.8-10.6-6.1-16.5-6.1
		c-8.4,0-16.2,4.6-17.4,15.8c-2.5,24.8,34,43.9,34,43.9S87.4,89.5,84.8,64.7z M74.1,78.1c-2.2,4-5.6,8-10.1,12
		c-4.8,4.3-9.8,7.7-13,9.7c-1.5-0.9-3.3-2.2-5.3-3.6V60.5c0.1,0.1,0.1,0.1,0.2,0.2l5.1,4.6l5.1-4.6c2.8-2.6,7.2-4.2,11.4-4.2
		c1.9,0,4.6,0.3,6.6,2.1c1.8,1.4,2.9,3.8,3.2,7C77.7,69.4,76.7,73.7,74.1,78.1z"/>
</g>
</svg>
