<?xml version="1.0" encoding="utf-8"?>
<!-- Generator: Adobe Illustrator 21.0.0, SVG Export Plug-In . SVG Version: 6.00 Build 0)  -->
<svg version="1.1" id="Capa_1" xmlns="http://www.w3.org/2000/svg" xmlns:xlink="http://www.w3.org/1999/xlink" x="0px" y="0px"
	 viewBox="0 0 178.9 157.5" style="enable-background:new 0 0 178.9 157.5;" xml:space="preserve">
<style type="text/css">
	.st0{fill:#FFFFFF;}
</style>
<g>
	<path class="st0" d="M130.1,43.7h45.3v6.4l-26.9,62h-9.4L167.2,51h-37.1V43.7z"/>
</g>
<g>
	<path class="st0" d="M84.8,64.7c-1.2-11.3-9-15.8-17.4-15.8c-6,0-12.2,2.3-16.5,6.1c-4.4-3.8-10.6-6.1-16.5-6.1
		c-8.4,0-16.2,4.6-17.4,15.8c-2.5,24.8,34,43.9,34,43.9S87.4,89.5,84.8,64.7z M74.1,78.1c-2.2,4-5.6,8-10.1,12
		c-0.8,0.7-1.7,1.5-2.6,2.2V57.5c1.9-0.7,4-1.1,6-1.1c1.9,0,4.6,0.3,6.6,2.1c1.8,1.4,2.9,3.8,3.2,7C77.7,69.4,76.7,73.7,74.1,78.1z"
		/>
</g>
</svg>
