<?xml version="1.0" encoding="utf-8"?>
<!-- Generator: Adobe Illustrator 21.0.0, SVG Export Plug-In . SVG Version: 6.00 Build 0)  -->
<svg version="1.1" id="Capa_1" xmlns="http://www.w3.org/2000/svg" xmlns:xlink="http://www.w3.org/1999/xlink" x="0px" y="0px"
	 viewBox="0 0 178.9 157.5" style="enable-background:new 0 0 178.9 157.5;" xml:space="preserve">
<style type="text/css">
	.st0{fill:#FFFFFF;}
</style>
<g>
	<path class="st0" d="M150,49.2c-5.6,0-9.8,2.1-12.5,6.2s-4.1,11.2-4.3,21.1c1.7-3.1,4.2-5.5,7.5-7.2s7-2.6,11.1-2.6
		c6.3,0,11.3,2,15.2,6.1c3.9,4,5.8,9.5,5.8,16.4s-1.9,12.4-5.7,16.7s-9.3,6.4-16.5,6.4c-11.4,0-18.7-4.8-21.9-14.5
		c-1.8-5.5-2.7-13.1-2.7-23s1.9-17.8,5.8-23.8c3.9-6,9.9-8.9,18.1-8.9c6,0,10.8,1.6,14.3,4.8s5.6,7.2,6.2,12h-7.7
		c-0.8-3.3-2.2-5.7-4.2-7.2C156.5,50,153.7,49.2,150,49.2z M164.7,89.6c0-4.8-1.2-8.6-3.7-11.4s-6-4.2-10.5-4.2s-8.4,1.3-11.5,3.8
		s-4.7,6.3-4.7,11.1c0,4.9,1.3,8.8,4,11.7c2.7,2.9,6.5,4.3,11.3,4.3s8.5-1.4,11.1-4.1C163.4,98.1,164.7,94.3,164.7,89.6z"/>
</g>
<g>
	<path class="st0" d="M84.8,64.7c-1.2-11.3-9-15.8-17.4-15.8c-6,0-12.2,2.3-16.5,6.1c-4.4-3.8-10.6-6.1-16.5-6.1
		c-8.4,0-16.2,4.6-17.4,15.8c-2.5,24.8,34,43.9,34,43.9S87.4,89.5,84.8,64.7z M74.1,78.1c-2.2,4-5.6,8-10.1,12
		c-2.7,2.4-5.4,4.5-7.8,6.2V60.5c2.8-2.5,7-4.1,11.2-4.1c1.9,0,4.6,0.3,6.6,2.1c1.8,1.4,2.9,3.8,3.2,7
		C77.7,69.4,76.7,73.7,74.1,78.1z"/>
</g>
</svg>
