<?xml version="1.0" encoding="utf-8"?>
<!-- Generator: Adobe Illustrator 21.0.0, SVG Export Plug-In . SVG Version: 6.00 Build 0)  -->
<svg version="1.1" id="Capa_1" xmlns="http://www.w3.org/2000/svg" xmlns:xlink="http://www.w3.org/1999/xlink" x="0px" y="0px"
	 viewBox="0 0 178.9 157.5" style="enable-background:new 0 0 178.9 157.5;" xml:space="preserve">
<style type="text/css">
	.st0{fill:#FFFFFF;}
</style>
<g>
	<path class="st0" d="M58,113.2V54h-7.7v-7.6h16.1v66.7L58,113.2L58,113.2z"/>
	<path class="st0" d="M89.5,51c1.7-2,4-3.6,6.8-4.7c2.8-1.2,6.3-1.8,10.4-1.8c4.2,0,7.8,0.9,11,2.6c3.2,1.7,5.6,4.2,7.3,7.5
		c3.1,6,4.6,14.1,4.6,24.3c0,13-2.3,22.3-7,27.7c-3.8,4.4-9.4,6.6-16.6,6.6c-13.3,0-21-7.8-23-23.4c-0.4-3.3-0.6-6.9-0.6-11
		c0-4,0.2-7.7,0.6-10.9c0.4-3.2,1.2-6.3,2.3-9.4C86.4,55.4,87.8,53,89.5,51z M118.8,60.4c-1-2.7-2.5-4.8-4.7-6.2s-4.7-2.1-7.7-2.1
		c-2.9,0-5.4,0.5-7.3,1.5c-1.9,1-3.4,2.3-4.5,3.9c-1.1,1.6-1.9,3.6-2.5,6.1c-0.6,2.5-1,4.9-1.2,7.1c-0.2,2.3-0.2,5-0.2,8.1
		s0.1,5.8,0.2,8.1c0.2,2.3,0.5,4.7,1.2,7.1c0.6,2.5,1.5,4.5,2.5,6.1c1.1,1.6,2.6,2.9,4.5,3.9s4.2,1.5,6.8,1.5s4.9-0.5,6.8-1.5
		c1.9-1,3.4-2.3,4.5-3.9s1.9-3.6,2.5-6.1c1-4,1.5-8.6,1.5-13.6c0-5.1-0.2-9-0.5-11.8C120.5,65.8,119.8,63.1,118.8,60.4z"/>
</g>
</svg>
