<?xml version="1.0" encoding="utf-8"?>
<!-- Generator: Adobe Illustrator 21.0.0, SVG Export Plug-In . SVG Version: 6.00 Build 0)  -->
<svg version="1.1" id="Layer_1" xmlns="http://www.w3.org/2000/svg" xmlns:xlink="http://www.w3.org/1999/xlink" x="0px" y="0px" viewBox="0 0 116.4 184.6" style="enable-background:new 0 0 116.4 184.6;" xml:space="preserve">
	<style type="text/css">
		.st0 {
			fill: #331F45;
		}
		.st1 {
			fill: #E0A68F;
		}
		.st2 {
			fill: #FF8C8A;
		}
		.st3 {
			fill: #A3735C;
		}
		.st4 {
			fill: #FFFFFF;
		}
		.st5 {
			fill: #F5787D;
		}
		@keyframes FloatingBounce {
			0% {
				transform: translate(0, -10px) rotate(0.001deg);
			}
			50% {
				transform: translate(0, -2px) rotate(0.001deg);
			}
			100% {
				transform: translate(0, -10px) rotate(0.001deg);
			}
		}
		@keyframes FloatingBounce2 {
			0% {
				transform: translate(0, 4px) rotate(0.001deg);
			}
			50% {
				transform: translate(0, -2px) rotate(0.001deg);
			}
			100% {
				transform: translate(0, 4px) rotate(0.001deg);
			}
		}
		#LeftBrow {
			animation: FloatingBounce2 3s ease-in-out infinite;
		}
		#RightBrow {
			animation: FloatingBounce 3s ease-in-out infinite;
		}
	</style>
	<path class="st0" d="M57.9,21.8c-29,0-53.5,40-53.5,87.4c0,47.2,27.2,75.4,53.5,75.4c25.8,0,53.5-28.8,53.5-75.4
	C111.5,61.9,87,21.8,57.9,21.8z"/>
	<path
		class="st1"
		d="M116.4,85.2c0-2.9-2.2-5.3-5.1-5.6c0-0.9,0-1.9,0-2.9c0-46.2-26.8-54.2-56-54.2c-29.2,0-49.7,7.9-49.7,54.2
	c0,0.9,0,1.9,0,2.8c0,0,0,0,0,0C2.5,79.5,0,82,0,85.2s2.5,5.7,5.7,5.7c0.2,0,0.3,0,0.5,0c2.1,27.7,10.5,50.8,26.8,62.3
	c6.4-3.2,14.3-7.4,24.4-7.4c9.7,0,19.5,4.1,25.8,8.3c17.3-11.1,25.8-34.8,27.8-63.2C114,90.7,116.4,88.2,116.4,85.2"/>
	<path class="st2" d="M69.6,151.7c0,5.3-5.4,9.6-12,9.6s-12-4.3-12-9.6"/>
	<path class="st2" d="M69.6,151.7c0,5.3-12,0.7-12,0.7s-12,4.6-12-0.7l0.5-4l11.3-5.4l11.9,5L69.6,151.7z"/>
	<path
		class="st0"
		d="M65.9,154.9c-3.2,0-7.2-1.4-8.3-1.8c-1.6,0.6-8.6,3-11.4,1.1c-0.8-0.6-1.2-1.4-1.2-2.5l0.6-4.5l11.9-5.7
	l12.6,5.3l0.2,4.8c0,1.1-0.4,1.9-1.2,2.5C68.3,154.7,67.2,154.9,65.9,154.9z M46.8,148.1l-0.5,3.7c0,0.5,0.2,1,0.6,1.2
	c2.1,1.4,8.2-0.5,10.4-1.3l0.2-0.1l0.2,0.1c2.2,0.9,8.4,2.7,10.4,1.3c0.4-0.3,0.6-0.7,0.6-1.3l-0.2-3.9L57.5,143L46.8,148.1z"/>
	<path
		class="st3"
		d="M79.8,145.3l-1.2-0.6c1.6-3.1,1.8-5.9,0.5-8.2c-2.8-5.1-11.6-7-14.5-7.4c0.3,3-1.1,4.6-2.4,5.4
	c-3.1,1.9-8.3,1.2-9.8,0.1c-0.2-0.1-0.4-0.3-0.5-1.5c-1.7-0.3-2.8-0.9-3.3-2c-1-1.8,0.1-4,0.1-4.1l1.2,0.6l-0.6-0.3l0.6,0.3
	c0,0-0.8,1.6-0.2,2.8c0.3,0.6,1,1,2.1,1.2c0-3.1,0.4-9.8,2-24.4c1.4-12.8,3.1-25.5,3.1-25.6l1.4,0.2c-2.5,18.7-6,49.2-4.9,51.8
	c1.2,0.8,5.5,1.4,8.1-0.2c1.6-1,2.1-2.6,1.6-4.9l-0.2-0.9l1,0.1c0.5,0.1,12.8,1.5,16.5,8.3C81.8,138.5,81.6,141.7,79.8,145.3z
	 M53.4,133.5L53.4,133.5L53.4,133.5z M27.7,97.3l-1.1-0.9c0.4-0.5,4-4.8,7.1-4.8c3.2,0,6.9,4.6,7.1,4.8l-1.1,0.8
	c-1-1.2-3.9-4.3-6-4.3C31.7,93,28.7,96.1,27.7,97.3z M76.3,97.3l-1.1-0.9c0.4-0.5,4-4.8,7.1-4.8c3.2,0,6.9,4.6,7.1,4.8l-1.1,0.8
	c-0.9-1.2-3.9-4.3-6-4.3C80.3,93,77.3,96.1,76.3,97.3z"/>
	<path
		id="LeftBrow"
		class="st0"
		d="M44.1,80.6c-2.9-3.3-7.4-5-11.8-4.4c-2.3,0.3-4.7,1.3-6.8,2.9c-1,0.8-1.9,1.6-2.8,2.6
	c-0.8,0.9-1.8,2.1-1.7,3.6c0.1,1.4,1.2,2.5,2.6,2.7c0.1,0,0.3,0,0.4,0c1.2,0,2.3-0.8,3.2-1.4c1.9-1.4,4.2-2.1,6.7-2.1
	c3.5,0,6.5,1.7,7.7,2.4l0.2,0.1c1.3,0.7,2.6,0.6,3.7-0.4c0.5-0.5,0.8-1.1,0.9-1.7C46.6,83.3,45.1,81.7,44.1,80.6z"/>
	<path
		id="RightBrow"
		class="st0"
		d="M93.4,81.7c-0.9-1-1.8-1.9-2.8-2.6c-2.1-1.6-4.5-2.6-6.8-2.9c-4.3-0.5-8.8,1.2-11.8,4.4
	c-1,1.1-2.4,2.7-2.3,4.3c0,0.7,0.3,1.3,0.9,1.7c1.1,1,2.4,1.1,3.7,0.4l0.2-0.1c1.2-0.6,4.2-2.4,7.7-2.4c2.5,0,4.8,0.7,6.7,2.1
	c0.9,0.6,1.9,1.4,3.2,1.4c0.1,0,0.3,0,0.4,0c1.4-0.2,2.5-1.3,2.6-2.7C95.2,83.8,94.2,82.6,93.4,81.7z"/>
	<path class="st0" d="M33.8,92.8c-3,0-5.4,2.4-5.4,5.4s2.4,5.4,5.4,5.4s5.4-2.4,5.4-5.4S36.7,92.8,33.8,92.8z"/>
	<path class="st0" d="M82.4,92.8c-3,0-5.4,2.4-5.4,5.4s2.4,5.4,5.4,5.4c3,0,5.4-2.4,5.4-5.4S85.3,92.8,82.4,92.8z"/>
	<path class="st4" d="M81.6,95.1c-1.2,0-2.1,0.9-2.1,2.1c0,1.2,0.9,2.1,2.1,2.1c0.7,0,1.3-0.3,1.7-0.8c0.3-0.4,0.4-0.8,0.4-1.3
	C83.7,96,82.8,95.1,81.6,95.1"/>
	<path class="st4" d="M32.9,95.1c-1.2,0-2.1,0.9-2.1,2.1c0,1.2,1,2.1,2.1,2.1c0.7,0,1.3-0.3,1.7-0.8c0.3-0.4,0.5-0.8,0.5-1.3
	C35,96,34.1,95.1,32.9,95.1"/>
	<g>
		<path
			class="st0"
			d="M82.4,144.8c-6.6-7.2-22.9-3.8-24.8-3.4c-1.8-0.4-18.2-3.8-24.8,3.4c-3.1,3.4-3.5,8.6-1.2,15.4l1.3,3.9V160
		c0-3.5,1.4-7.8,8-8.6c1.6-0.2,3,0,4.5,0.1c2.1,0.3,4.3,0.5,7.2-0.2c2.9-0.7,4.3-3.2,5-5.4c0.7,2.2,2.1,4.7,5,5.4
		c2.9,0.7,5.1,0.4,7.2,0.2c1.5-0.2,2.9-0.4,4.5-0.1c6.6,0.8,8,5.1,8,8.6v4.2l1.3-4C85.9,153.4,85.5,148.2,82.4,144.8z"/>
		<polygon class="st0" points="33,164.2 33,164.2 33,164.2 	"/>
	</g>
	<path
		class="st0"
		d="M109,39.6c3.3-10.8,2.2-20.3-3-27.5C100.2,4.3,89.5,0,76,0C53.6,0,41.4,3.2,38.8,9.8
	c-27.4,3.7-33.1,23.4-34,34.8C-0.1,60,4.9,76.9,5,77l0.7,2.4L6.3,77C14.9,40.5,29,38.7,39.2,37.4c3.6-0.5,6.8-0.9,9.3-2.6
	c6.2,5.3,12.9,9.3,13,9.3l0.4,0.2l0.4-0.2c9.6-6.5,18-8.5,25.1-6.1c10.2,3.5,14,15.4,14,15.5l0.5,1.5l0.8-1.3
	c1.3-2.2,2.5-4.4,3.5-6.6c1.7,5.4,2.6,11.7,3.4,17.3c0.3,2.3,0.7,4.5,1,6.4l0.8,4.4l0.6-4.4C113.2,61,112,48.8,109,39.6z"/>
	<path class="st5" d="M39.6,118.6c0,2.8-2.3,5.1-5.1,5.1s-5.1-2.3-5.1-5.1c0-2.8,2.3-5.1,5.1-5.1C37.3,113.5,39.6,115.8,39.6,118.6"/>
	<path class="st5" d="M87.5,118.6c0,2.8-2.3,5.1-5.1,5.1c-2.8,0-5.1-2.3-5.1-5.1c0-2.8,2.3-5.1,5.1-5.1S87.5,115.8,87.5,118.6"/>
</svg>
