<?xml version="1.0" encoding="utf-8"?>
<!-- Generator: Adobe Illustrator 21.0.0, SVG Export Plug-In . SVG Version: 6.00 Build 0)  -->
<svg version="1.1" id="Capa_1" xmlns="http://www.w3.org/2000/svg" xmlns:xlink="http://www.w3.org/1999/xlink" x="0px" y="0px"
	 viewBox="0 0 178.9 157.5" style="enable-background:new 0 0 178.9 157.5;" xml:space="preserve">
<style type="text/css">
	.st0{fill:#FFFFFF;}
</style>
<g>
	<path class="st0" d="M26.8,83.2l40.9,43.9c0.4,0.4,0.4,0.4,0.8,0.4c0.4,0,0.4,0,0.8-0.4l84.2-87.4c0.3-0.3,0.5-0.6,0.5-0.9
		s-0.1-0.6-0.4-0.9l-7.4-7.4c-0.2-0.2-0.5-0.4-0.9-0.4c-0.4,0-0.7,0.2-0.9,0.4l-1.2,1.2h-0.5l-69.5,72c-1.3,1.3-2.9,2-4.7,2
		c-1.8,0-3.4-0.7-4.7-2l-0.1-0.1L35,72.6l-0.5-0.5c-0.3-0.3-0.6-0.4-0.9-0.4s-0.6,0.1-0.9,0.4l-7.4,7.4c-0.2,0.2-0.4,0.7-0.4,0.9
		c0,0.1,0.2,0.6,0.4,0.8l0.2,0.2L26.8,83.2z"/>
	<polygon class="st0" points="64.4,103.4 64.4,103.4 64.4,103.4 	"/>
</g>
</svg>
